<?xml version="1.0" encoding="UTF-8" standalone="no"?>
<svg
   xmlns:dc="http://purl.org/dc/elements/1.1/"
   xmlns:cc="http://creativecommons.org/ns#"
   xmlns:rdf="http://www.w3.org/1999/02/22-rdf-syntax-ns#"
   xmlns:svg="http://www.w3.org/2000/svg"
   xmlns="http://www.w3.org/2000/svg"
   xmlns:sodipodi="http://sodipodi.sourceforge.net/DTD/sodipodi-0.dtd"
   xmlns:inkscape="http://www.inkscape.org/namespaces/inkscape"
   width="272px"
   height="90px"
   viewBox="0 0 272 90"
   version="1.1"
   id="SVGRoot"
   sodipodi:docname="drawing.svg"
   inkscape:version="1.0.1 (3bc2e813f5, 2020-09-07)">
  <defs
     id="defs18" />
  <sodipodi:namedview
     id="base"
     pagecolor="#ffffff"
     bordercolor="#666666"
     borderopacity="1.0"
     inkscape:pageopacity="0.0"
     inkscape:pageshadow="2"
     inkscape:zoom="1.4142136"
     inkscape:cx="-189.63894"
     inkscape:cy="181.3852"
     inkscape:document-units="px"
     inkscape:current-layer="layer1"
     inkscape:document-rotation="0"
     showgrid="false"
     inkscape:window-width="1920"
     inkscape:window-height="1018"
     inkscape:window-x="-8"
     inkscape:window-y="31"
     inkscape:window-maximized="1" />
  <metadata
     id="metadata21">
    <rdf:RDF>
      <cc:Work
         rdf:about="">
        <dc:format>image/svg+xml</dc:format>
        <dc:type
           rdf:resource="http://purl.org/dc/dcmitype/StillImage" />
        <dc:title />
      </cc:Work>
    </rdf:RDF>
  </metadata>
  <g
     inkscape:label="Layer 1"
     inkscape:groupmode="layer"
     id="layer1">
    <path
       style="fill:none;stroke:#000000;stroke-width:0.858266px;stroke-linecap:butt;stroke-linejoin:miter;stroke-opacity:1"
       d="M 22.106476,65.262364 40.358251,36.939073 57.958177,65.262364 h -4.34566 L 42.748365,47.317073 30.797797,65.478572 Z"
       id="path876" />
    <text
       xml:space="preserve"
       style="font-style:normal;font-weight:normal;font-size:40px;line-height:1.25;font-family:sans-serif;fill:#000000;fill-opacity:1;stroke:none"
       x="61.07143"
       y="55.714283"
       id="text880"><tspan
         sodipodi:role="line"
         id="tspan878"
         x="61.07143"
         y="55.714283"
         style="font-style:normal;font-variant:normal;font-weight:bold;font-stretch:normal;font-family:'PT Sans';-inkscape-font-specification:'PT Sans Bold'">Similar Software</tspan></text>
    <path
       style="mix-blend-mode:lighten;fill:#ff0000;fill-opacity:1;stroke-width:0.0446429"
       d="m 29.62076,65.859467 c -0.613839,-0.01724 -2.602678,-0.06534 -4.419643,-0.106882 -1.816964,-0.04154 -3.415454,-0.08939 -3.5522,-0.106334 l -0.248628,-0.03081 9.467378,-14.696789 c 5.207058,-8.083233 9.481475,-14.692608 9.498704,-14.687499 0.03033,0.009 18.236151,29.282706 18.281751,29.395804 0.01807,0.04482 -0.511242,0.05383 -2.620748,0.04464 l -2.64339,-0.01152 -5.318979,-8.785896 C 43.136374,48.73307 42.741103,48.094385 42.67893,48.17129 c -0.0369,0.04565 -2.678705,4.053993 -5.87067,8.907435 -5.644995,8.583322 -5.80723,8.824271 -5.9375,8.818268 -0.07366,-0.0034 -0.63616,-0.02028 -1.25,-0.03753 z m 7.053572,-10.039453 c 3.339285,-5.079016 6.081686,-9.228605 6.094224,-9.22131 0.01254,0.0073 2.503609,4.11284 5.535714,9.123433 l 5.512919,9.110168 1.685268,9.42e-4 c 0.926897,5.22e-4 1.685268,-0.01053 1.685268,-0.02456 0,-0.04731 -16.806766,-27.072704 -16.836184,-27.072704 -0.03355,0 -17.505255,27.102015 -17.484854,27.122415 0.01631,0.01631 6.28169,0.184301 7.133538,0.191266 l 0.602678,0.0049 z"
       id="path856" />
    <path
       style="fill:#ff0000;fill-opacity:1;stroke-width:0.0446429;stroke:#ff0000;stroke-opacity:1"
       d="m 28.99576,64.982159 c -0.196428,-0.007 -1.631914,-0.04386 -3.189968,-0.08203 -1.558054,-0.03816 -2.839058,-0.07562 -2.846676,-0.08324 -0.0192,-0.0192 17.349618,-26.967021 17.388864,-26.978926 0.02566,-0.0078 16.698042,26.785317 16.740621,26.902765 0.01744,0.0481 -2.139863,0.09864 -2.741433,0.06422 l -0.495195,-0.02833 -5.530785,-9.143355 c -3.041932,-5.028846 -5.540829,-9.144032 -5.553106,-9.144859 -0.01228,-8.26e-4 -2.764509,4.166726 -6.116072,9.26123 l -6.09375,9.262734 -0.602678,-0.0088 c -0.331473,-0.0048 -0.763393,-0.01447 -0.959822,-0.02143 z"
       id="path1110" />
    <path
       style="fill:#ff0000;fill-opacity:1;stroke:#ff0000;stroke-width:0.0441942;stroke-opacity:1"
       d="m 30.511619,65.864126 c -0.109381,-0.0071 -1.521385,-0.04364 -3.137787,-0.08113 -4.010532,-0.09301 -5.84892,-0.15233 -5.883838,-0.189857 -0.02949,-0.03169 8.470798,-13.251728 16.601139,-25.818867 2.032988,-3.142408 2.234309,-3.447146 2.277313,-3.447146 0.01785,0 0.346374,0.502156 0.730056,1.115903 2.929272,4.68573 15.830363,25.434755 17.156478,27.59303 l 0.355967,0.579342 -0.555627,0.03087 c -0.305595,0.01698 -1.482085,0.01665 -2.614422,-7.25e-4 l -2.058795,-0.0316 -0.415679,-0.689101 c -1.129255,-1.872044 -7.951228,-13.129446 -8.59938,-14.19042 -1.039542,-1.701653 -1.516093,-2.452887 -1.609805,-2.537695 -0.07666,-0.06938 -0.118854,-0.01474 -0.874768,1.132962 -0.43682,0.663222 -2.673304,4.059874 -4.969966,7.548115 -4.558154,6.923065 -5.113329,7.761 -5.574973,8.414396 -0.363978,0.515162 -0.445928,0.603546 -0.5497,0.592857 -0.04254,-0.0044 -0.166833,-0.0138 -0.276213,-0.02094 z m 2.743484,-4.79931 c 6.448985,-9.810042 9.372676,-14.236797 9.472332,-14.342041 0.04225,-0.04462 0.180485,0.152141 0.667537,0.950175 0.850257,1.393141 6.038645,9.960093 8.418238,13.900006 l 1.966641,3.256185 0.353553,-0.0042 0.353554,-0.0042 -0.304054,-0.03529 c -0.167229,-0.01941 -0.318231,-0.0516 -0.33556,-0.07153 -0.01733,-0.01993 -1.052542,-1.726669 -2.300475,-3.792746 -2.453359,-4.06178 -7.80857,-12.90177 -8.377664,-13.829235 -0.192696,-0.314041 -0.370053,-0.577021 -0.394127,-0.584401 -0.02407,-0.0074 -0.192003,0.209787 -0.373176,0.482594 -0.626483,0.943349 -6.488003,9.836461 -9.168443,13.910389 l -2.690625,4.089406 -0.711666,-0.01049 c -0.655203,-0.0097 -1.284079,-0.02463 -3.385413,-0.08059 -0.425369,-0.01133 -1.230808,-0.03068 -1.789864,-0.04301 -1.237387,-0.02729 -1.62608,-0.05846 -1.599289,-0.128276 0.04734,-0.123368 16.722721,-26.018381 17.283247,-26.838962 0.01811,-0.02651 12.218589,19.561997 16.500542,26.492487 0.109463,0.17717 0.189494,0.331658 0.177846,0.343305 -0.01165,0.01165 -0.337358,0.03286 -0.723801,0.04713 -0.386443,0.01427 -0.71091,0.0338 -0.721038,0.04339 -0.01013,0.0096 0.352817,0.01744 0.806543,0.01744 0.453727,0 0.824958,-0.0098 0.824958,-0.02182 0,-0.0462 -4.802286,-7.787139 -12.337802,-19.88766 -4.570687,-7.339601 -4.471391,-7.182235 -4.522275,-7.166924 -0.06441,0.01938 -4.112984,6.273252 -13.23696,20.447273 -3.897144,6.054181 -4.260334,6.625359 -4.231283,6.65441 0.04151,0.04151 4.80806,0.178737 6.557781,0.188796 l 1.198742,0.0069 z m 21.905816,3.735069 c -0.115457,-0.0091 -0.304387,-0.0091 -0.419845,0 -0.115457,0.0091 -0.02099,0.01655 0.209923,0.01655 0.230914,0 0.325379,-0.0074 0.209922,-0.01655 z"
       id="path1112" />
    <path
       style="fill:#ff0000;fill-opacity:1;stroke:#ff0000;stroke-width:0.0441942;stroke-opacity:1"
       d="m 29.340473,65.845472 c -0.631977,-0.01845 -2.063868,-0.05567 -3.181981,-0.08271 -2.938816,-0.07108 -4.633845,-0.132497 -4.66835,-0.169166 -0.02914,-0.03097 0.654176,-1.100796 6.823309,-10.682816 3.324122,-5.163092 9.831867,-15.243794 11.112513,-17.213631 0.481977,-0.741357 0.903699,-1.347922 0.93716,-1.347922 0.03346,0 0.750557,1.10375 1.593547,2.452777 2.466867,3.947699 13.110198,21.063112 15.706211,25.25697 l 0.957472,1.546796 -0.254737,0.02835 c -0.352364,0.03921 -2.165752,0.04352 -3.706329,0.0088 L 53.37321,65.61393 52.16638,63.621115 c -9.119188,-15.058337 -9.358866,-15.44994 -9.456006,-15.44994 -0.05344,0 -0.269376,0.324279 -4.885059,7.336232 -5.164651,7.845924 -6.301646,9.56078 -6.644209,10.021029 l -0.271373,0.364602 -0.210105,-0.007 c -0.115559,-0.0039 -0.727178,-0.0221 -1.359155,-0.04055 z m 2.857832,-3.190223 C 40.528343,49.987504 42.67475,46.739272 42.743564,46.696743 c 0.02785,-0.01721 0.270713,0.336385 0.595018,0.866302 0.618703,1.010967 5.252188,8.658709 8.374349,13.822179 l 2.071001,3.425048 0.196833,0.0081 0.196834,0.0081 -0.164861,-0.04539 c -0.196426,-0.05408 0.346279,0.815582 -4.863228,-7.793094 -5.056885,-8.35647 -6.178489,-10.201245 -6.292594,-10.349836 -0.09413,-0.122574 -0.09627,-0.123038 -0.165181,-0.0358 -0.05681,0.07192 -7.633511,11.55233 -11.253093,17.050974 l -0.896589,1.362041 -1.064829,-0.02484 c -4.073473,-0.09504 -6.063003,-0.154174 -6.263072,-0.186166 -0.117345,-0.01876 -0.168938,-0.04703 -0.154504,-0.08464 0.01192,-0.03106 0.208366,-0.351515 0.436548,-0.712122 1.036778,-1.638464 12.972573,-20.176105 15.712045,-24.402584 l 1.126672,-1.738239 0.136169,0.21354 c 0.07489,0.117446 0.238268,0.372638 0.363055,0.567092 1.202044,1.873136 15.967603,25.608045 16.147812,25.956814 0.02933,0.05677 0.04405,0.112506 0.0327,0.123855 -0.01135,0.01135 -0.226749,0.03166 -0.478668,0.04513 -0.25192,0.01347 -0.466322,0.03232 -0.47645,0.04187 -0.01013,0.0096 0.245058,0.01738 0.56708,0.01738 h 0.585494 l -0.10016,-0.165728 C 56.03284,62.881124 41.333963,39.240216 40.568223,38.058576 40.452893,37.880607 40.352434,37.741395 40.34498,37.749217 40.231402,37.86839 30.922779,52.276179 25.031334,61.451515 c -1.839987,2.865595 -2.121113,3.312088 -2.121113,3.368815 0,0.05148 0.678172,0.0831 3.137786,0.1463 2.4346,0.06256 2.630473,0.06666 3.668116,0.07677 l 0.905981,0.0088 z"
       id="path1114" />
    <path
       style="fill:#ff0000;fill-opacity:1;stroke:#ff0000;stroke-width:0.0441942;stroke-opacity:1"
       d=""
       id="path1116" />
    <path
       style="fill:#ff0000;fill-opacity:1;stroke:#ff0000;stroke-width:0.0441942;stroke-opacity:1"
       d="m 27.130764,65.802483 c -3.927709,-0.104897 -5.600222,-0.166286 -5.639024,-0.20698 -0.01779,-0.01866 0.158092,-0.332241 0.390859,-0.696843 2.930958,-4.590991 16.396194,-25.473108 17.803719,-27.61031 0.348175,-0.528673 0.652349,-0.961223 0.675943,-0.961223 0.05724,0 0.74343,1.085579 4.469583,7.071068 10.446235,16.780261 13.797133,22.190336 13.764513,22.223011 -0.04351,0.04359 -3.04277,0.06368 -4.20656,0.02818 l -1.025239,-0.03127 -3.081789,-5.088504 C 44.072004,50.27469 42.953608,48.445146 42.799099,48.287336 c -0.0476,-0.04861 -0.103635,-0.0687 -0.135953,-0.04872 -0.05967,0.03688 -0.820414,1.183381 -5.057669,7.622339 -3.796586,5.769317 -6.290704,9.522375 -6.512687,9.800058 l -0.185479,0.232019 -0.429866,-0.0063 c -0.236426,-0.0035 -1.742432,-0.04138 -3.346681,-0.08422 z m 5.923657,-4.461454 c 6.345763,-9.664449 9.658246,-14.672465 9.704898,-14.672465 0.05468,0 0.533559,0.785156 7.453051,12.219689 1.956299,3.232804 3.579174,5.892436 3.606389,5.910294 0.103557,0.06795 0.127473,0.02973 0.04106,-0.06561 C 53.745853,64.607192 53.582762,64.340329 49.815253,58.11486 46.30153,52.308748 43.75103,48.101676 43.1749,47.16154 c -0.373353,-0.609245 -0.391519,-0.630799 -0.465593,-0.552428 -0.04239,0.04485 -1.250209,1.861474 -2.684032,4.036932 -7.877855,11.952623 -9.31334,14.133825 -9.394428,14.274718 -0.08836,0.153522 -0.08836,0.154018 -7.07e-4,0.06629 0.04857,-0.04861 1.139502,-1.689323 2.424286,-3.64602 z m -4.540238,3.635198 c -0.235698,-0.0079 -0.633446,-0.008 -0.883884,-8.8e-5 -0.250437,0.0079 -0.05759,0.01438 0.428543,0.01442 0.486136,3.9e-5 0.691039,-0.0064 0.455341,-0.01435 z m -1.770118,-0.04422 c -0.236991,-0.0079 -0.624795,-0.0079 -0.861786,0 -0.236991,0.0079 -0.04309,0.01445 0.430893,0.01445 0.473983,0 0.667884,-0.0065 0.430893,-0.01445 z m -1.633086,-0.04406 c -0.187223,-0.0083 -0.505421,-0.0083 -0.707107,-8.8e-5 -0.201685,0.0082 -0.0485,0.01497 0.340407,0.01502 0.388909,4.5e-5 0.553924,-0.0067 0.3667,-0.01492 z m -1.493652,-0.04181 c -0.458486,-0.02139 -0.586207,-0.05215 -0.554927,-0.133669 0.06356,-0.165646 2.734522,-4.337309 9.260861,-14.464171 7.533783,-11.690104 7.994708,-12.398001 8.039698,-12.347525 0.05985,0.06714 1.004594,1.554992 2.05956,3.243525 4.536202,7.260448 14.163103,22.751251 14.534223,23.387252 l 0.121027,0.207409 -0.146357,0.02445 c -0.0805,0.01345 -0.23585,0.03099 -0.345231,0.03899 -0.109381,0.008 -0.02486,0.01802 0.187825,0.02226 0.212685,0.0042 0.386699,-0.0091 0.386699,-0.02961 0,-0.0566 -3.910865,-6.3692 -11.188884,-18.060181 -4.708541,-7.563522 -5.512995,-8.847189 -5.578417,-8.901485 -0.04899,-0.04066 -0.102399,0.01237 -0.2731,0.271217 -2.099236,3.183194 -16.636963,25.732914 -17.093803,26.514494 l -0.120734,0.206557 0.101664,0.01944 c 0.05591,0.01069 0.28065,0.01832 0.499411,0.01695 0.285428,-0.0018 0.316628,-0.0063 0.110485,-0.0159 z"
       id="path1118" />
    <path
       style="fill:#ff0000;fill-opacity:1;stroke:#e10000;stroke-width:0.0441942;stroke-opacity:1"
       d="m 26.71092,65.802169 c -3.464106,-0.09477 -5.153773,-0.158615 -5.216054,-0.197107 -0.05833,-0.03605 -0.255249,0.280074 2.477126,-3.976771 6.078673,-9.470139 15.703738,-24.375002 16.16144,-25.026746 0.203759,-0.290143 0.227339,-0.309886 0.286691,-0.240039 0.06187,0.07281 0.470001,0.70933 1.28145,1.998553 1.002842,1.593307 11.935385,19.171036 14.760387,23.732271 2.102698,3.395008 2.165069,3.498153 2.134053,3.529205 -0.04163,0.04169 -4.393926,0.05793 -4.856422,0.01812 L 53.345778,65.605767 50.897328,61.562 c -5.671393,-9.366656 -7.69811,-12.692426 -8.018957,-13.158815 -0.07107,-0.103304 -0.147877,-0.187825 -0.170689,-0.187825 -0.05259,0 -0.31635,0.395738 -4.757053,7.137359 -4.318794,6.556544 -6.350163,9.620292 -6.732192,10.153611 l -0.277002,0.386699 -0.667898,-0.0058 c -0.367345,-0.0032 -1.970522,-0.04147 -3.562617,-0.08502 z M 23.098046,64.8031 c -0.03038,-0.01226 -0.05524,-0.03994 -0.05524,-0.06152 0,-0.07944 1.258463,-2.052103 6.683025,-10.475752 3.629601,-5.636305 3.380727,-5.246976 3.316805,-5.188684 -0.05517,0.05031 -0.316554,0.454539 -5.115329,7.910757 -2.935462,4.56105 -4.840738,7.535201 -4.989868,7.789223 -0.02292,0.03904 0.004,0.05422 0.09171,0.05175 0.06828,-0.0019 0.09928,-0.01352 0.0689,-0.02578 z M 57.09148,64.79269 c 0.150992,-0.05913 0.0087,-0.07889 -0.151746,-0.02107 -0.131602,0.04744 -0.138196,0.05566 -0.04419,0.05514 0.06077,-3.53e-4 0.14894,-0.01567 0.19594,-0.03408 z m -3.259821,-0.03766 c -0.01084,-0.01823 -0.267966,-0.440837 -0.571401,-0.939126 -0.303435,-0.498289 -2.231561,-3.68027 -4.284724,-7.071068 -6.267901,-10.351434 -6.153739,-10.16466 -6.212952,-10.16466 -0.02932,0 -2.321699,3.418267 -2.456839,3.663494 -0.134949,0.24488 0.184244,-0.217829 1.215905,-1.762599 0.641006,-0.959818 1.180527,-1.765257 1.198936,-1.789864 0.06943,-0.0928 -0.512541,-1.040821 8.708326,14.185785 2.498096,4.125157 2.36689,3.911184 2.398298,3.911184 0.01328,0 0.01529,-0.01492 0.0045,-0.03315 z M 34.179735,59.61132 c 3.372716,-5.123823 3.401639,-5.168156 3.326175,-5.098289 -0.02625,0.02431 -0.460418,0.670646 -0.964807,1.43631 -3.444863,5.229314 -5.663783,8.605275 -5.693317,8.662058 -0.125158,0.240639 0.484584,-0.674369 3.331949,-5.000079 z m 20.506097,1.155186 c -0.02602,-0.04861 -0.05725,-0.08839 -0.0694,-0.08839 -0.01215,0 -8.08e-4,0.03977 0.02521,0.08839 0.02602,0.04861 0.05725,0.08839 0.0694,0.08839 0.01215,0 8.08e-4,-0.03977 -0.02521,-0.08839 z m -0.220971,-0.353553 c -0.02602,-0.04861 -0.05725,-0.08839 -0.0694,-0.08839 -0.01215,0 -8.09e-4,0.03977 0.02521,0.08839 0.02602,0.04861 0.05725,0.08839 0.0694,0.08839 0.01215,0 8.08e-4,-0.03977 -0.02521,-0.08839 z M 54.24389,60.059398 c -0.02602,-0.04861 -0.05725,-0.08839 -0.0694,-0.08839 -0.01215,0 -8.09e-4,0.03977 0.02521,0.08839 0.02602,0.04861 0.05725,0.08839 0.0694,0.08839 0.01215,0 8.09e-4,-0.03977 -0.02521,-0.08839 z m -0.132583,-0.220971 c -0.02602,-0.04861 -0.05725,-0.08839 -0.0694,-0.08839 -0.01215,0 -8.09e-4,0.03977 0.02521,0.08839 0.02602,0.04861 0.05725,0.08839 0.0694,0.08839 0.01215,0 8.09e-4,-0.03977 -0.02521,-0.08839 z m -0.220971,-0.353553 c -0.02602,-0.04861 -0.05725,-0.08839 -0.0694,-0.08839 -0.01215,0 -8.09e-4,0.03977 0.02521,0.08839 0.02602,0.04861 0.05725,0.08839 0.0694,0.08839 0.01215,0 8.09e-4,-0.03977 -0.02521,-0.08839 z m -0.22097,-0.353553 c -0.02602,-0.04861 -0.05725,-0.08839 -0.0694,-0.08839 -0.01215,0 -8.08e-4,0.03977 0.02521,0.08839 0.02602,0.04861 0.05725,0.08839 0.0694,0.08839 0.01215,0 8.08e-4,-0.03977 -0.02521,-0.08839 z m -0.220971,-0.353554 c -0.02602,-0.04861 -0.05725,-0.08839 -0.0694,-0.08839 -0.01215,0 -8.09e-4,0.03977 0.02521,0.08839 0.02602,0.04861 0.05725,0.08839 0.0694,0.08839 0.01215,0 8.09e-4,-0.03977 -0.02521,-0.08839 z m -0.132583,-0.220971 c -0.02602,-0.04861 -0.05725,-0.08839 -0.0694,-0.08839 -0.01215,0 -8.09e-4,0.03978 0.02521,0.08839 0.02602,0.04861 0.05725,0.08839 0.0694,0.08839 0.01215,0 8.09e-4,-0.03977 -0.02521,-0.08839 z m -0.220971,-0.353553 c -0.02602,-0.04861 -0.05725,-0.08839 -0.0694,-0.08839 -0.01215,0 -8.09e-4,0.03977 0.02521,0.08839 0.02602,0.04861 0.05725,0.08839 0.0694,0.08839 0.01215,0 8.09e-4,-0.03977 -0.02521,-0.08839 z M 52.87387,57.84969 c -0.02602,-0.04861 -0.05725,-0.08839 -0.0694,-0.08839 -0.01215,0 -8.08e-4,0.03977 0.02521,0.08839 0.02602,0.04861 0.05725,0.08839 0.0694,0.08839 0.01215,0 8.09e-4,-0.03977 -0.02521,-0.08839 z M 52.6529,57.496136 c -0.02602,-0.04861 -0.05725,-0.08839 -0.0694,-0.08839 -0.01215,0 -8.08e-4,0.03977 0.02521,0.08839 0.02602,0.04861 0.05725,0.08839 0.0694,0.08839 0.01215,0 8.08e-4,-0.03977 -0.02521,-0.08839 z m -0.12779,-0.209922 c -0.02338,-0.04254 -0.0759,-0.117115 -0.116702,-0.165728 -0.07123,-0.08486 -0.07167,-0.08398 -0.01109,0.0221 0.115781,0.202734 0.128099,0.220971 0.149263,0.220971 0.01157,0 0.0019,-0.0348 -0.02147,-0.07734 z m -0.225764,-0.364602 c -0.02602,-0.04861 -0.05725,-0.08839 -0.0694,-0.08839 -0.01215,0 -8.09e-4,0.03977 0.02521,0.08839 0.02602,0.04861 0.05725,0.08839 0.0694,0.08839 0.01215,0 8.09e-4,-0.03977 -0.02521,-0.08839 z m -0.220971,-0.353553 c -0.02602,-0.04861 -0.05725,-0.08839 -0.0694,-0.08839 -0.01215,0 -8.09e-4,0.03977 0.02521,0.08839 0.02602,0.04861 0.05725,0.08839 0.0694,0.08839 0.01215,0 8.09e-4,-0.03977 -0.02521,-0.08839 z m -0.220971,-0.353554 c -0.02602,-0.04861 -0.05725,-0.08839 -0.0694,-0.08839 -0.01215,0 -8.08e-4,0.03977 0.02521,0.08839 0.02602,0.04861 0.05725,0.08839 0.0694,0.08839 0.01215,0 8.09e-4,-0.03977 -0.02521,-0.08839 z m -0.127789,-0.209922 c -0.02338,-0.04254 -0.0759,-0.117115 -0.116702,-0.165728 -0.07123,-0.08486 -0.07167,-0.08398 -0.01109,0.0221 0.115781,0.202734 0.128099,0.220971 0.149263,0.220971 0.01157,0 0.0019,-0.0348 -0.02147,-0.07734 z m -0.220971,-0.353554 c -0.02338,-0.04254 -0.0759,-0.117114 -0.116702,-0.165728 -0.07123,-0.08486 -0.07167,-0.08398 -0.01109,0.0221 0.115781,0.202735 0.128099,0.220971 0.149263,0.220971 0.01157,0 0.0019,-0.0348 -0.02147,-0.07734 z M 51.28288,55.286428 c -0.02602,-0.04861 -0.05725,-0.08839 -0.0694,-0.08839 -0.01215,0 -8.09e-4,0.03977 0.02521,0.08839 0.02602,0.04861 0.05725,0.08839 0.0694,0.08839 0.01215,0 8.09e-4,-0.03978 -0.02521,-0.08839 z m -0.220971,-0.353554 c -0.02602,-0.04861 -0.05725,-0.08839 -0.0694,-0.08839 -0.01215,0 -8.09e-4,0.03977 0.02521,0.08839 0.02602,0.04861 0.05725,0.08839 0.0694,0.08839 0.01215,0 8.09e-4,-0.03977 -0.02521,-0.08839 z m -0.220971,-0.353553 c -0.02602,-0.04861 -0.05725,-0.08839 -0.0694,-0.08839 -0.01215,0 -8.08e-4,0.03977 0.02521,0.08839 0.02602,0.04861 0.05725,0.08839 0.0694,0.08839 0.01215,0 8.09e-4,-0.03977 -0.02521,-0.08839 z M 38.231912,53.452369 c 0.64448,-0.970914 0.720662,-1.091083 0.644396,-1.016466 -0.04378,0.04284 -1.240027,1.833203 -1.314022,1.966641 -0.123017,0.22184 0.129523,-0.136506 0.669626,-0.950175 z m 12.481237,0.917029 c -0.02338,-0.04254 -0.0759,-0.117114 -0.116702,-0.165728 -0.07123,-0.08486 -0.07167,-0.08398 -0.01109,0.0221 0.115781,0.202735 0.128099,0.220971 0.149263,0.220971 0.01157,0 0.0019,-0.0348 -0.02147,-0.07734 z m -0.220971,-0.353553 c -0.02338,-0.04254 -0.0759,-0.117115 -0.116702,-0.165728 -0.07123,-0.08486 -0.07167,-0.08398 -0.01109,0.0221 0.115781,0.202735 0.128099,0.220971 0.149263,0.220971 0.01157,0 0.0019,-0.0348 -0.02147,-0.07734 z m -0.225764,-0.364602 c -0.02602,-0.04861 -0.05725,-0.08839 -0.0694,-0.08839 -0.01215,0 -8.09e-4,0.03977 0.02521,0.08839 0.02602,0.04861 0.05725,0.08839 0.0694,0.08839 0.01215,0 8.09e-4,-0.03977 -0.02521,-0.08839 z M 50.045443,53.29769 c -0.02602,-0.04861 -0.05725,-0.08839 -0.0694,-0.08839 -0.01215,0 -8.09e-4,0.03977 0.02521,0.08839 0.02602,0.04861 0.05725,0.08839 0.0694,0.08839 0.01215,0 8.09e-4,-0.03977 -0.02521,-0.08839 z m -0.127789,-0.209923 c -0.02338,-0.04254 -0.0759,-0.117114 -0.116703,-0.165728 -0.07123,-0.08486 -0.07167,-0.08398 -0.01109,0.0221 0.115781,0.202735 0.128099,0.220971 0.149263,0.220971 0.01157,0 0.0019,-0.0348 -0.02147,-0.07734 z m -0.220971,-0.353553 c -0.02338,-0.04254 -0.0759,-0.117115 -0.116702,-0.165728 -0.07123,-0.08486 -0.07167,-0.08398 -0.01109,0.0221 0.115781,0.202735 0.128099,0.220971 0.149263,0.220971 0.01157,0 0.0019,-0.0348 -0.02147,-0.07734 z m -0.220971,-0.353553 c -0.02338,-0.04254 -0.0759,-0.117115 -0.116702,-0.165729 -0.07123,-0.08486 -0.07167,-0.08398 -0.01109,0.0221 0.115781,0.202734 0.128099,0.22097 0.149263,0.22097 0.01157,0 0.0019,-0.0348 -0.02147,-0.07734 z m -9.91798,-0.939127 c 0.600661,-0.905139 0.675904,-1.02425 0.60023,-0.950174 -0.04384,0.04291 -1.151977,1.701094 -1.225674,1.834058 -0.120393,0.217212 0.123065,-0.126846 0.625444,-0.883884 z m 9.692216,0.574525 c -0.02602,-0.04861 -0.05725,-0.08839 -0.0694,-0.08839 -0.01215,0 -8.09e-4,0.03977 0.02521,0.08839 0.02602,0.04861 0.05725,0.08839 0.0694,0.08839 0.01215,0 8.09e-4,-0.03977 -0.02521,-0.08839 z m -0.220971,-0.353554 c -0.02602,-0.04861 -0.05725,-0.08839 -0.0694,-0.08839 -0.01215,0 -8.09e-4,0.03977 0.02521,0.08839 0.02602,0.04861 0.05725,0.08839 0.0694,0.08839 0.01215,0 8.09e-4,-0.03978 -0.02521,-0.08839 z m -0.127789,-0.209922 c -0.02338,-0.04254 -0.0759,-0.117115 -0.116703,-0.165728 -0.07123,-0.08486 -0.07167,-0.08398 -0.01109,0.0221 0.115781,0.202734 0.128099,0.220971 0.149263,0.220971 0.01157,0 0.0019,-0.0348 -0.02147,-0.07734 z M 48.680217,51.09903 c -0.02338,-0.04254 -0.0759,-0.117115 -0.116702,-0.165729 -0.07123,-0.08486 -0.07167,-0.08398 -0.01109,0.0221 0.115781,0.202734 0.128099,0.22097 0.149263,0.22097 0.01157,0 0.0019,-0.0348 -0.02147,-0.07734 z m -0.220971,-0.353554 c -0.02338,-0.04254 -0.0759,-0.117114 -0.116702,-0.165728 -0.07123,-0.08486 -0.07167,-0.08398 -0.01109,0.0221 0.115781,0.202735 0.128099,0.220971 0.149263,0.220971 0.01157,0 0.0019,-0.0348 -0.02147,-0.07734 z m -0.22097,-0.353553 c -0.02338,-0.04254 -0.0759,-0.117115 -0.116703,-0.165728 -0.07123,-0.08486 -0.07167,-0.08398 -0.01109,0.0221 0.115781,0.202734 0.128099,0.220971 0.149263,0.220971 0.01157,0 0.0019,-0.0348 -0.02147,-0.07734 z m -0.220971,-0.353554 c -0.02338,-0.04254 -0.0759,-0.117114 -0.116703,-0.165728 -0.07123,-0.08486 -0.07167,-0.08398 -0.01109,0.0221 0.115781,0.202735 0.128099,0.220971 0.149264,0.220971 0.01157,0 0.0019,-0.0348 -0.02147,-0.07734 z M 47.79154,49.673767 c -0.02602,-0.04861 -0.05725,-0.08839 -0.0694,-0.08839 -0.01215,0 -8.08e-4,0.03977 0.02521,0.08839 0.02602,0.04861 0.05725,0.08839 0.0694,0.08839 0.01215,0 8.08e-4,-0.03977 -0.02521,-0.08839 z m -0.127789,-0.209922 c -0.02338,-0.04254 -0.0759,-0.117114 -0.116702,-0.165728 -0.07123,-0.08486 -0.07167,-0.08398 -0.01109,0.0221 0.115781,0.202735 0.128099,0.220971 0.149263,0.220971 0.01157,0 0.0019,-0.0348 -0.02147,-0.07734 z M 47.44278,49.110292 c -0.02338,-0.04254 -0.0759,-0.117115 -0.116702,-0.165728 -0.07123,-0.08486 -0.07167,-0.08398 -0.01109,0.0221 0.115781,0.202734 0.128099,0.220971 0.149263,0.220971 0.01157,0 0.0019,-0.0348 -0.02147,-0.07734 z M 33.216214,48.845127 c 0.236628,-0.360161 0.265809,-0.408796 0.245273,-0.408796 -0.01932,0 -0.08173,0.08893 -0.317924,0.45299 -0.04337,0.06684 -0.06926,0.121534 -0.05754,0.121534 0.01172,0 0.0703,-0.07458 0.130191,-0.165728 z m 14.005596,-0.08839 c -0.02338,-0.04254 -0.0759,-0.117114 -0.116703,-0.165728 -0.07123,-0.08486 -0.07167,-0.08398 -0.01109,0.0221 0.115781,0.202735 0.128099,0.220971 0.149263,0.220971 0.01157,0 0.0019,-0.0348 -0.02147,-0.07734 z m -0.220971,-0.353553 c -0.02338,-0.04254 -0.0759,-0.117115 -0.116703,-0.165728 -0.07123,-0.08486 -0.07167,-0.08398 -0.01109,0.0221 0.115781,0.202735 0.128099,0.220971 0.149264,0.220971 0.01157,0 0.0019,-0.0348 -0.02147,-0.07734 z M 33.657671,48.160117 c 0.279587,-0.422982 0.31143,-0.475087 0.290336,-0.475087 -0.01841,0 -0.139409,0.17426 -0.406596,0.585572 -0.04342,0.06684 -0.06953,0.121534 -0.05803,0.121534 0.01151,0 0.08994,-0.104408 0.174286,-0.232019 z m 13.122197,-0.110485 c -0.02338,-0.04254 -0.0759,-0.117115 -0.116703,-0.165729 -0.07123,-0.08486 -0.07167,-0.08398 -0.01109,0.0221 0.115781,0.202734 0.1281,0.22097 0.149264,0.22097 0.01157,0 0.0019,-0.0348 -0.02147,-0.07734 z M 46.54524,47.673981 c -0.03477,-0.05469 -0.158443,-0.253564 -0.274822,-0.441942 -0.116379,-0.188377 -0.221772,-0.342504 -0.234205,-0.342504 -0.01243,0 0.0058,0.04475 0.04062,0.09944 0.03477,0.05469 0.158443,0.253564 0.274823,0.441942 0.116379,0.188378 0.221771,0.342505 0.234204,0.342505 0.01243,0 -0.0058,-0.04475 -0.04062,-0.09944 z M 34.100097,47.475107 c 0.236628,-0.360161 0.265809,-0.408796 0.245273,-0.408796 -0.01932,0 -0.08173,0.08893 -0.317924,0.452991 -0.04337,0.06684 -0.06926,0.121533 -0.05754,0.121533 0.01172,0 0.07031,-0.07458 0.130191,-0.165728 z m 0.58683,-0.91411 0.0747,-0.135501 -0.08735,0.107566 c -0.04804,0.05916 -0.120964,0.168542 -0.162051,0.243068 l -0.0747,0.135502 0.08735,-0.107567 c 0.04804,-0.05916 0.120964,-0.168542 0.162051,-0.243068 z m 11.297446,0.207004 c -0.02338,-0.04254 -0.0759,-0.117115 -0.116703,-0.165729 -0.07123,-0.08486 -0.07167,-0.08398 -0.01109,0.0221 0.115781,0.202735 0.128099,0.220971 0.149264,0.220971 0.01157,0 0.0019,-0.0348 -0.02147,-0.07734 z m -0.220971,-0.353554 c -0.02338,-0.04254 -0.0759,-0.117114 -0.116703,-0.165728 -0.07123,-0.08486 -0.07167,-0.08398 -0.01109,0.0221 0.115781,0.202735 0.1281,0.220971 0.149264,0.220971 0.01157,0 0.0019,-0.0348 -0.02147,-0.07734 z M 34.983981,46.105088 c 0.236628,-0.360161 0.265808,-0.408796 0.245273,-0.408796 -0.01932,0 -0.08173,0.08893 -0.317924,0.45299 -0.04337,0.06684 -0.06926,0.121534 -0.05754,0.121534 0.01172,0 0.0703,-0.07458 0.130191,-0.165728 z m 10.55845,-0.04419 c -0.02338,-0.04254 -0.0759,-0.117115 -0.116703,-0.165728 -0.07123,-0.08486 -0.07167,-0.08398 -0.01109,0.0221 0.11578,0.202734 0.128099,0.220971 0.149263,0.220971 0.01157,0 0.0019,-0.0348 -0.02147,-0.07734 z m -0.209172,-0.331457 c -0.231552,-0.389775 -1.143339,-1.834027 -1.178805,-1.867203 -0.0578,-0.05407 -0.04576,-0.03397 0.628992,1.049611 0.298933,0.480059 0.552316,0.872835 0.563073,0.872835 0.01076,0 0.0048,-0.02486 -0.01326,-0.05524 z m -9.762448,-0.538459 0.0747,-0.135502 -0.08735,0.107567 c -0.04804,0.05916 -0.120965,0.168542 -0.162051,0.243068 l -0.0747,0.135501 0.08735,-0.107566 c 0.04804,-0.05916 0.120965,-0.168542 0.162052,-0.243068 z m 0.486136,-0.751301 0.0747,-0.135502 -0.08735,0.107567 c -0.04804,0.05916 -0.120965,0.168542 -0.162052,0.243068 l -0.0747,0.135501 0.08735,-0.107566 c 0.04804,-0.05916 0.120965,-0.168542 0.162052,-0.243068 z m 0.426561,-0.665832 0.04339,-0.08839 -0.07197,0.08839 c -0.03958,0.04861 -0.0915,0.128163 -0.115362,0.176777 l -0.04339,0.08839 0.07197,-0.08839 c 0.03958,-0.04861 0.0915,-0.128163 0.115362,-0.176777 z m 7.600515,-0.05524 c -0.02338,-0.04254 -0.0759,-0.117115 -0.116702,-0.165729 -0.07123,-0.08486 -0.07167,-0.08398 -0.01109,0.0221 0.115781,0.202734 0.128099,0.22097 0.149263,0.22097 0.01157,0 0.0019,-0.0348 -0.02147,-0.07734 z m -0.20921,-0.331457 c -0.08761,-0.147303 -3.12347,-5.002873 -3.304895,-5.285869 -0.11462,-0.17879 -0.217805,-0.315667 -0.229301,-0.304172 -0.0115,0.0115 0.187088,0.341942 0.441297,0.734326 0.254208,0.392383 1.052953,1.657869 1.774988,2.812191 0.722035,1.154322 1.321335,2.098767 1.331779,2.098767 0.01044,0 0.0042,-0.02486 -0.01387,-0.05524 z M 36.87558,43.177224 c 0.02602,-0.04861 0.03736,-0.08839 0.02521,-0.08839 -0.01215,0 -0.04338,0.03977 -0.0694,0.08839 -0.02602,0.04861 -0.03736,0.08839 -0.02521,0.08839 0.01215,0 0.04338,-0.03977 0.0694,-0.08839 z m 3.335619,-5.145702 0.0747,-0.135502 -0.08735,0.107566 c -0.04804,0.05916 -0.120964,0.168542 -0.162051,0.243068 l -0.0747,0.135502 0.08735,-0.107566 c 0.04804,-0.05916 0.120964,-0.168542 0.162051,-0.243068 z"
       id="path1120" />
  </g>
</svg>
