<svg width="384" height="60" viewBox="0 0 384 60" fill="none" xmlns="http://www.w3.org/2000/svg">
<g id="logo-actiondesk-black">
<g id="Group">
<path id="Path" fill-rule="evenodd" clip-rule="evenodd" d="M10.6445 60.0001L33.2527 20.7578L40.7888 33.8424L25.7167 60.0001H10.6445Z" fill="#6450FF"/>
<path id="Path_2" fill-rule="evenodd" clip-rule="evenodd" d="M48.3251 46.9214L40.7891 60.0002H55.8612L48.3251 46.9214Z" fill="#FF5078"/>
<path id="Path_3" fill-rule="evenodd" clip-rule="evenodd" d="M30.1443 0L37.6804 13.0788L15.0721 52.3212H0L30.1443 0Z" fill="#78DCFF"/>
<path id="Path_4" fill-rule="evenodd" clip-rule="evenodd" d="M45.2167 26.1577L52.7527 39.2423L45.2167 52.3212H30.1445L45.2167 26.1577Z" fill="#FFE164"/>
</g>
<path id="Combined Shape" fill-rule="evenodd" clip-rule="evenodd" d="M173.589 11.2903C172.387 11.289 171.237 10.7925 170.411 9.9172C169.536 9.08199 169.04 7.92367 169.04 6.71239C169.04 5.50112 169.536 4.3428 170.411 3.50759C171.245 2.63032 172.4 2.13379 173.609 2.13379C174.818 2.13379 175.974 2.63032 176.807 3.50759C177.683 4.3428 178.178 5.50112 178.178 6.71239C178.178 7.92367 177.683 9.08199 176.807 9.9172C175.971 10.8028 174.805 11.3002 173.589 11.2903ZM177.452 47.9134H169.392V15.5191H177.452V47.9134ZM149.685 7.77105H156.715V15.5191H163.744V22.9095H156.721V36.2941C156.62 37.5356 157.069 38.7586 157.948 39.6393C158.827 40.52 160.047 40.9696 161.286 40.8691C161.67 40.8691 161.975 40.8576 162.201 40.8345C162.415 40.8149 162.626 40.7802 162.835 40.7307C163.034 40.6824 163.228 40.6107 163.41 40.5172V47.5614C163.039 47.7149 162.653 47.8327 162.259 47.9134C161.367 48.1617 160.444 48.2802 159.519 48.2653C158.016 48.2814 156.525 48.0071 155.126 47.4576C153.815 46.9367 152.635 46.1308 151.672 45.098C150.692 44.0338 149.928 42.7898 149.421 41.4345C148.863 39.901 148.59 38.2781 148.615 36.646V22.9095H143.692V16.2172H145.805C148.377 16.2172 149.664 14.9268 149.668 12.346L149.685 7.77105ZM93.1159 15.1614C94.8487 15.1439 96.568 15.4673 98.1765 16.1134C99.6821 16.7162 101.052 17.6146 102.206 18.7557C103.348 19.909 104.243 21.283 104.837 22.7941C105.482 24.4059 105.805 26.1289 105.787 27.8653V47.9134H99.7942L98.3837 44.746C97.6234 45.403 96.7999 45.9827 95.9254 46.4768C95.0154 46.9957 94.0497 47.4099 93.0469 47.7114C91.8139 48.0772 90.5329 48.2542 89.2472 48.2364C85.7353 48.2364 83.0487 47.3807 81.1872 45.6691C79.3314 43.9924 78.3042 41.5835 78.3777 39.0807C78.3616 37.5606 78.6862 36.0563 79.3276 34.6787C80.0434 33.2445 81.1517 32.0439 82.5228 31.2172C84.3577 30.1255 86.3681 29.3622 88.4642 28.9614C91.4983 28.3718 94.5854 28.1011 97.6756 28.1537C97.6756 26.371 97.1977 24.9807 96.2363 23.9999C95.2228 22.9915 93.8346 22.4538 92.4078 22.5172C91.516 22.4776 90.6297 22.6767 89.8401 23.0941C89.2775 23.4122 88.7685 23.8171 88.3318 24.2941C87.9153 24.8137 87.6326 25.4278 87.5085 26.0826H79.4485C79.6286 24.6068 80.0691 23.1749 80.7497 21.8537C81.4357 20.5264 82.3791 19.3496 83.5246 18.3922C84.7706 17.3655 86.1874 16.5667 87.71 16.0326C89.4479 15.4301 91.2772 15.1353 93.1159 15.1614ZM90.6519 41.9249C92.5326 42.0133 94.3701 41.3421 95.7527 40.0614C97.045 38.7978 97.7453 37.0465 97.6813 35.2384V33.8249C95.7573 33.7996 93.8339 33.9056 91.9242 34.1422C90.7493 34.2783 89.6009 34.5874 88.516 35.0595C87.8236 35.3478 87.2437 35.8541 86.8637 36.5018C86.5763 37.0945 86.4323 37.7468 86.4434 38.4057C86.4675 39.3522 86.9053 40.2403 87.6409 40.8345C88.4675 41.5722 89.5457 41.9627 90.6519 41.9249ZM139.726 40.5576C140.598 39.1293 141.239 37.5716 141.625 35.9422L133.525 35.9537C133.163 36.8147 132.639 37.598 131.982 38.2614C131.336 38.8826 130.6 39.4038 129.8 39.8076C128.774 40.313 127.639 40.5586 126.496 40.523C124.326 40.5726 122.236 39.7034 120.739 38.1287C119.203 36.5287 118.436 34.3922 118.436 31.7191C118.436 29.046 119.203 26.9095 120.739 25.3095C122.237 23.7373 124.326 22.8685 126.496 22.9153C127.642 22.878 128.779 23.1321 129.8 23.6537C130.603 24.0757 131.343 24.6077 132 25.2345C132.647 25.8853 133.17 26.65 133.542 27.4903H141.602C141.215 25.8614 140.574 24.3039 139.703 22.8749C138.814 21.3978 137.701 20.0684 136.404 18.9345C135.07 17.768 133.547 16.8375 131.902 16.1826C130.18 15.4979 128.343 15.1512 126.49 15.1614C124.349 15.1511 122.23 15.5955 120.272 16.4653C118.353 17.3159 116.612 18.5239 115.143 20.0249C113.656 21.5391 112.463 23.3174 111.625 25.2691C109.898 29.3909 109.898 34.0358 111.625 38.1576C112.464 40.1103 113.657 41.8903 115.143 43.4076C116.619 44.9114 118.368 46.1194 120.295 46.9672C122.252 47.8397 124.372 48.2842 126.513 48.271C128.366 48.2842 130.204 47.9374 131.925 47.2499C133.57 46.597 135.092 45.6684 136.427 44.5037C137.725 43.3691 138.838 42.0375 139.726 40.5576ZM213.399 38.1749C214.276 36.1411 214.719 33.9461 214.701 31.7307C214.718 29.5153 214.275 27.3206 213.399 25.2864C212.564 23.335 211.373 21.5566 209.888 20.0422C208.417 18.5424 206.676 17.3347 204.758 16.4826C200.792 14.747 196.283 14.747 192.317 16.4826C190.398 17.3333 188.657 18.5412 187.187 20.0422C185.7 21.5564 184.507 23.3348 183.67 25.2864C181.935 29.4067 181.935 34.0547 183.67 38.1749C184.509 40.1276 185.701 41.9076 187.187 43.4249C188.657 44.9242 190.398 46.1302 192.317 46.9787C196.283 48.7143 200.792 48.7143 204.758 46.9787C206.676 46.1287 208.417 44.9229 209.888 43.4249C211.372 41.9074 212.563 40.1273 213.399 38.1749ZM192.754 38.1403C191.219 36.5595 190.452 34.423 190.452 31.7307C190.455 29.0384 191.223 26.9018 192.754 25.321C195.935 22.1373 201.088 22.1373 204.269 25.321C205.804 26.9134 206.572 29.0499 206.572 31.7307C206.572 34.4114 205.804 36.548 204.269 38.1403C201.088 41.324 195.935 41.324 192.754 38.1403ZM241.408 16.1134C239.727 15.4627 237.937 15.1396 236.134 15.1614C234.895 15.1505 233.662 15.3415 232.484 15.7268C231.506 16.0491 230.554 16.4504 229.64 16.9268C228.72 17.4304 227.849 18.0195 227.038 18.6864L225.633 15.5191H219.663V47.9134H227.723V29.9537C227.638 28.0702 228.31 26.2312 229.589 24.848C232.279 22.2633 236.524 22.2633 239.214 24.848C240.493 26.2312 241.165 28.0702 241.08 29.9537V47.9364H249.14V28.898C249.168 26.9543 248.846 25.0214 248.19 23.1922C247.604 21.5805 246.695 20.106 245.518 18.8595C244.363 17.6569 242.96 16.7199 241.408 16.1134ZM263.06 47.0307C264.869 47.8505 266.832 48.2715 268.818 48.2653C270.105 48.2747 271.386 48.088 272.617 47.7114C273.62 47.4094 274.586 46.9953 275.496 46.4768C276.369 45.9813 277.193 45.4016 277.954 44.746L279.359 47.9134H285.306V3.5422H277.246V18.3403C276.55 17.7485 275.795 17.2285 274.995 16.7884C274.13 16.3658 273.237 16.0015 272.324 15.698C271.19 15.3289 270.004 15.1496 268.812 15.1672C266.827 15.1636 264.864 15.5845 263.055 16.4018C261.236 17.2216 259.599 18.3987 258.242 19.8634C256.827 21.3944 255.707 23.1743 254.937 25.1134C254.098 27.2171 253.68 29.4654 253.705 31.7307C253.686 33.9885 254.106 36.2284 254.943 38.3249C255.711 40.2629 256.831 42.0411 258.247 43.5691C259.602 45.0374 261.239 46.215 263.06 47.0307ZM275.651 25.321C277.186 26.9018 277.954 29.0384 277.954 31.7307C277.954 34.3999 277.186 36.5364 275.651 38.1403C272.471 41.324 267.318 41.324 264.137 38.1403C262.602 36.5403 261.834 34.4037 261.834 31.7307C261.834 29.0576 262.602 26.921 264.137 25.321C267.318 22.1373 272.471 22.1373 275.651 25.321ZM320.827 38.0768C320.362 39.3849 319.71 40.6188 318.893 41.7403C318.006 42.9771 316.941 44.0755 315.732 44.9999C314.448 45.9886 313.026 46.7836 311.512 47.3595C309.886 47.9816 308.158 48.2927 306.417 48.2768C304.276 48.2912 302.156 47.8466 300.2 46.973C298.281 46.1244 296.54 44.9184 295.07 43.4191C293.584 41.9019 292.391 40.1218 291.552 38.1691C289.817 34.0489 289.817 29.4009 291.552 25.2807C292.39 23.329 293.583 21.5506 295.07 20.0364C296.54 18.5354 298.28 17.3275 300.2 16.4768C304.079 14.7753 308.485 14.7378 312.393 16.373C314.243 17.1557 315.915 18.3057 317.31 19.7537C318.754 21.2664 319.888 23.0481 320.649 24.998C321.49 27.1412 321.909 29.4277 321.881 31.7307C321.882 32.0952 321.859 32.4595 321.812 32.821C321.782 33.0278 321.754 33.2288 321.727 33.424L321.726 33.4269C321.707 33.5684 321.687 33.7068 321.668 33.8422C321.644 34.0093 321.62 34.1996 321.596 34.3898C321.574 34.5674 321.552 34.745 321.53 34.9037H299.037C299.387 36.469 300.224 37.8828 301.426 38.9422C302.646 40.0191 304.31 40.5576 306.417 40.5576C307.332 40.5808 308.245 40.4621 309.123 40.2057C309.778 40.006 310.405 39.7229 310.988 39.3634C311.517 39.0126 311.991 38.5849 312.393 38.0941L320.827 38.0768ZM306.435 22.9326C304.536 22.8506 302.679 23.508 301.253 24.7672C299.936 25.953 299.035 27.5333 298.685 29.273H314.149C313.799 27.5333 312.899 25.953 311.581 24.7672C310.163 23.5039 308.313 22.8383 306.417 22.9095L306.435 22.9326ZM332.762 37.7018C332.94 38.7711 333.489 39.7433 334.311 40.448C336.296 41.9345 339.017 41.9485 341.018 40.4826C341.768 39.9056 342.224 39.0241 342.261 38.0768C342.231 37.3055 341.747 36.6257 341.029 36.3461C340.049 35.8644 339.026 35.4781 337.972 35.1922C336.759 34.8076 335.437 34.423 334.005 34.0384C332.609 33.681 331.271 33.1233 330.033 32.3826C328.839 31.666 327.807 30.707 327.005 29.5672C326.126 28.2201 325.694 26.6287 325.773 25.021C325.761 22.359 326.919 19.8268 328.939 18.098C330.021 17.174 331.257 16.4476 332.589 15.9518C334.12 15.3962 335.74 15.1283 337.368 15.1614C341.256 15.1614 344.242 16.1018 346.326 17.9826C348.377 19.7944 349.691 22.3001 350.016 25.021H342.261C341.98 24.182 341.455 23.4466 340.753 22.9095C339.897 22.1942 338.809 21.8185 337.696 21.8537C336.655 21.7829 335.626 22.1108 334.817 22.771C334.158 23.3299 333.784 24.1558 333.798 25.021C333.822 25.8132 334.323 26.5116 335.065 26.7864C336.045 27.2679 337.068 27.6542 338.122 27.9403C339.335 28.2903 340.659 28.6749 342.094 29.0941C343.49 29.4836 344.825 30.0662 346.061 30.8249C347.275 31.5697 348.317 32.5648 349.118 33.7441C349.997 35.1426 350.427 36.7777 350.35 38.4287C350.352 39.7314 350.065 41.0183 349.509 42.196C348.942 43.3988 348.126 44.4667 347.114 45.3287C346.003 46.2699 344.729 46.9993 343.355 47.4807C341.764 48.0376 340.089 48.3109 338.404 48.2884C334.182 48.2884 330.983 47.3268 328.807 45.4037C326.605 43.4312 325.257 40.6769 325.047 37.7249L332.762 37.7018ZM355.284 47.9134H363.344V33.121L374.593 47.9134H383.73L370.724 31.0095L382.325 15.5191H373.183L363.344 28.9268V3.5422H355.284V47.9134Z" fill="#0A0A2D"/>
</g>
</svg>
