<svg xmlns="http://www.w3.org/2000/svg" xmlns:xlink="http://www.w3.org/1999/xlink" viewBox="0 0 440 440"><linearGradient id="b" x1="-8037.352" x2="-7773.709" y1="-1264.794" y2="-1264.794" gradientTransform="rotate(-110 -3318.836 -3375.516)" gradientUnits="userSpaceOnUse"><stop offset="0" stop-color="#4e51c4"/><stop offset="1" stop-color="#2197ff"/></linearGradient><linearGradient id="a" x1="104748.281" x2="113208.271" y1="135719.817" y2="113238.395" gradientTransform="matrix(.0194 0 0 .0193 -1862.64 -2196.515)" gradientUnits="userSpaceOnUse"><stop offset="0" stop-color="#e2e3f3"/><stop offset=".396" stop-color="#ebebfb"/><stop offset=".69" stop-color="#eeeefe"/><stop offset="1" stop-color="#eeeefe"/></linearGradient><linearGradient id="c" x1="134471.674" x2="127766.907" y1="-154031.288" y2="-137150.647" gradientTransform="matrix(.0168 .0005 .0005 -.0168 -1872.348 -2305.21)" gradientUnits="userSpaceOnUse"><stop offset=".324" stop-color="#eeeefe"/><stop offset=".723" stop-color="#d2d4e5"/><stop offset=".801" stop-color="#b0b5c6"/><stop offset=".972" stop-color="#5a6579"/><stop offset=".989" stop-color="#515d71"/></linearGradient><linearGradient xlink:href="#a" id="d" x1="106240.518" x2="116156.237" y1="134258.12" y2="107908.215"/><linearGradient id="e" x1="133133.944" x2="127950.164" y1="-159900.022" y2="-133738.753" gradientTransform="matrix(.0168 .0004 .0004 -.0168 -1872.68 -2305.906)" gradientUnits="userSpaceOnUse"><stop offset=".307" stop-color="#eeeefe"/><stop offset=".578" stop-color="#d2d4e5"/><stop offset=".661" stop-color="#b0b5c6"/><stop offset=".843" stop-color="#5a6579"/><stop offset=".86" stop-color="#515d71"/></linearGradient><linearGradient xlink:href="#a" id="f" x1="100481.414" x2="111304.292" y1="136399.869" y2="107639.362"/><linearGradient id="g" x1="118223.278" x2="128213.63" y1="-149497.699" y2="-149497.699" gradientTransform="matrix(.0168 0 0 -.0168 -1873.492 -2307.318)" gradientUnits="userSpaceOnUse"><stop offset="0" stop-color="#eeeefe"/><stop offset=".422" stop-color="#c5c8d9"/><stop offset=".763" stop-color="#757e91"/></linearGradient><linearGradient id="h" x1="127452.996" x2="121612.111" y1="-147630.815" y2="-142506.184" gradientTransform="matrix(.0168 0 0 -.0168 -1873.492 -2307.318)" gradientUnits="userSpaceOnUse"><stop offset=".324" stop-color="#eeeefe"/><stop offset=".595" stop-color="#d2d4e5"/><stop offset=".755" stop-color="#989eb1"/><stop offset=".912" stop-color="#656f83"/><stop offset=".989" stop-color="#515d71"/></linearGradient><linearGradient xlink:href="#b" id="i" x1="220" x2="220" y1="401.354" y2="308.172"/><circle cx="220" cy="176" r="127" fill="url(#b)"/><path fill="url(#a)" d="M268.737 112.087c-54.814 19.308-71.005 153.342-71.005 153.342s-.908 6.197 3.086 6.4c0 0 4.733 1.163 5.827-5.128.054-.314.19-.606.253-.918 1.623-8.067 24.863-120.364 76.618-122.282a50.847 50.847 0 0 1 25.252 5.153c.116.059.228.12.34.187a5.554 5.554 0 0 0 6.593-.364 8.141 8.141 0 0 0 1.164-1.404c1.568-2.535 2.614-4.783 1.053-10.307 0 0-9.554-36.743-49.181-24.679z"/><path fill="url(#c)" d="M206.963 264.757c32.67-194.907 102.145-115.916 102.145-115.916a47.547 47.547 0 0 0-16.626-5.04c-13.894-1.573-29.85 1.584-46.947 24.798 0 0-19.4 23.057-32.832 73.257z"/><path fill="url(#d)" d="M290.87 185.307c-26.996-5.107-62.819 77.895-62.819 77.895-2.36 4.877-4.9 3.861-4.9 3.861-2.904-.61-1.634-5.487-1.634-5.487s23.26-98.19 60.621-101.824c0 0 24.503-2.946 25.047 24.796 0 0 0 8.739-7.442 5.08a26.96 26.96 0 0 0-8.873-4.32z"/><path fill="url(#e)" d="M299.743 189.629a25.698 25.698 0 0 0-8.873-4.322c-26.348-4.525-62.603 77.398-62.603 77.398s18.13-60.905 45.9-83.058c0 0 17.058-12.481 25.576 9.982z"/><path fill="url(#f)" d="M260.075 86.54s-10.54-10.909-28.522-4.768c0 0-18.696 5.488-25.229 31.706 0 0-4.356 17.072-7.079 33.331a200.63 200.63 0 0 1-8.735 34.035c-15.962 47.82-33.917 47.464-33.917 47.464-15.064 0-23.05-19.917-23.05-19.917-.833-2.051-3.821-5.111-7.05-2.907a4.342 4.342 0 0 0-1.341 1.934 23.051 23.051 0 0 0-.16 9.506c5.444 33.738 26.338 39.229 26.338 39.229 32.851 9.959 45.193-48.169 45.193-48.169.183-.62 15.559-60.803 37.08-88.115a73.517 73.517 0 0 1 16.867-15.157c2.493-1.612 10.21-5.618 11.66-6.833 1.926-1.615 2.79-6.89-2.055-11.339z"/><path fill="url(#g)" d="M190.777 180.098c-15.185 42.024-33.807 40.972-33.807 40.972s-13.264.938-23.427-12.679c0 0 7.999 19.994 23.064 19.996 0 0 20.424 1 34.17-48.289z"/><path fill="url(#h)" d="M203.911 183.174c16.195-113.648 55.699-83.686 55.699-83.686-3.783 1.89-9.913 5.747-10.21 5.933a74.705 74.705 0 0 0-15.572 14.16c-11.871 13.443-29.917 63.593-29.917 63.593z"/><path fill="url(#i)" d="M114.103 319.79a14.084 14.084 0 0 0-7.825-2.288 15.327 15.327 0 0 0-10.349 3.815c-4.796 4.324-12.368 15.77-18.174 27.47a117.884 117.884 0 0 1-18.931.763c4.543-10.428 8.33-20.094 8.33-23.655 0-7.376-6.058-8.139-11.36-7.885a169.178 169.178 0 0 1-10.853 29.25 29.4 29.4 0 0 1-7.825-4.323 6.108 6.108 0 0 0-1.262 3.56 8.157 8.157 0 0 0 5.805 7.885A226.235 226.235 0 0 1 25 383.887a13.98 13.98 0 0 0 8.582 2.543c5.553 0 7.825-2.034 11.106-7.884 3.282-5.85 7.573-14.498 11.107-22.383a121.563 121.563 0 0 0 19.183-1.272c-4.038 9.157-6.815 17.805-6.815 23.909 0 7.376 7.068 11.7 12.369 11.7.504-24.672 20.698-59.263 33.57-70.71zm11.106 23.401c-16.154 0-33.571 16.279-33.571 32.303 0 6.104 3.534 10.428 11.359 10.428 18.93 0 32.561-21.874 32.561-33.828.253-6.614-3.786-8.903-10.349-8.903zm-15.65 34.083h-.252a2.538 2.538 0 0 1-2.316-2.737 2.566 2.566 0 0 1 .044-.315c0-10.683 12.369-25.18 19.184-25.18 1.767 0 2.524 1.016 2.524 3.052-.252 8.647-10.097 25.18-19.184 25.18zm51.746-34.592c-11.864 0-21.708 9.666-21.708 16.025s4.543 11.191 4.543 15.26a6.22 6.22 0 0 1-5.52 6.836q-.268.028-.538.032a5.689 5.689 0 0 1-5.3-4.324 5.406 5.406 0 0 0-4.039 4.832c0 2.544 2.524 4.324 8.077 4.324 11.36 0 20.194-7.884 20.194-13.989s-3.787-10.428-3.787-15.26c0-4.833 2.525-8.649 6.816-8.649a5.686 5.686 0 0 1 5.3 4.07 5.076 5.076 0 0 0 4.039-4.833c0-2.29-2.272-4.324-8.077-4.324zm38.872 7.122a5.293 5.293 0 0 0 5.3-5.087h-9.591a74.335 74.335 0 0 1 9.34-10.682 13.976 13.976 0 0 0-16.66 1.526 61.414 61.414 0 0 0-6.816 9.156h-4.543a5.293 5.293 0 0 0-5.3 5.087h6.814c-4.543 8.394-8.582 16.533-8.582 24.926 0 8.394 5.806 11.955 11.359 11.7-.757-10.173 4.796-25.18 11.359-36.626zm61.59-8.139c-3.03 10.683-13.884 34.337-21.708 34.337h-.253a1.907 1.907 0 0 1-1.262-1.78c0-6.105 9.087-20.348 9.087-25.18s-4.543-6.36-9.844-6.614c-4.544 11.954-19.689 32.811-25.242 32.811h-.505a1.451 1.451 0 0 1-1.01-1.78c.253-6.36 7.068-19.585 14.893-28.996a10.546 10.546 0 0 0-6.563-2.035 13.525 13.525 0 0 0-11.106 4.324c-7.32 8.14-12.368 24.163-12.368 32.302 0 3.307 1.262 6.105 5.805 6.105 10.097 0 19.184-10.174 25.747-17.805a27.435 27.435 0 0 0-2.524 10.174c0 4.07 2.019 7.376 6.31 7.376 17.164 0 36.348-27.724 36.348-36.88a7.024 7.024 0 0 0-5.806-6.359zm14.892 2.29c-4.039 10.173-14.893 23.908-14.893 33.573a10.875 10.875 0 0 0 10.35 10.937v-1.017c0-15.515 15.144-27.47 15.144-35.863 0-7.122-6.562-7.631-10.601-7.631zm50.905-.255a6.303 6.303 0 0 0-.674 0c-7.573 0-14.136 5.595-20.698 11.954a14.076 14.076 0 0 0 2.524-6.359c0-6.358-6.31-6.613-10.097-6.613-3.534 14.244-15.902 25.435-15.902 34.338v.254a8.025 8.025 0 0 0 8.398 7.642 5.5 5.5 0 0 0 .184-.012c6.058-16.024 21.455-32.302 26.504-32.302a1.421 1.421 0 0 1 1.262 1.526c0 5.342-9.34 17.296-9.34 23.91a9.995 9.995 0 0 0 9.266 10.661q.415.028.831.02c2.524-15.77 13.63-26.96 13.63-38.406a6.265 6.265 0 0 0-5.888-6.613zm74.798-23.655s-1.514-2.034-6.31-2.034c-9.592 0-15.903 9.156-24.485 25.18h-2.524c-21.708 0-37.862 17.805-37.862 33.32 0 5.596 3.029 8.648 7.572 8.648 9.592 0 17.922-10.937 19.941-13.226a6.301 6.301 0 0 0-.252 3.052c0 6.867 3.533 12.463 10.349 12.463.757-23.4 20.193-55.703 33.571-67.403zm-54.774 54.685c-.758 0-1.515-.763-1.515-2.034 0-7.63 9.34-24.418 21.456-24.418l2.019.254c-5.3 8.648-15.397 26.198-21.96 26.198zm59.318-32.048c-11.864 0-21.708 9.666-21.708 16.025s4.29 11.191 4.29 15.26c0 4.07-2.27 6.868-5.805 6.868a5.689 5.689 0 0 1-5.3-4.324 5.406 5.406 0 0 0-4.04 4.832c0 2.544 2.273 4.324 8.078 4.324 11.359 0 20.193-7.884 20.193-13.989s-3.786-10.428-3.786-15.26c0-4.833 2.524-8.649 6.815-8.649a5.686 5.686 0 0 1 5.301 4.07 5.076 5.076 0 0 0 4.039-4.833c.252-2.29-2.272-4.324-8.077-4.324zm-120.15-2.289a6.868 6.868 0 1 0-6.816-6.867 6.841 6.841 0 0 0 6.815 6.867z"/></svg>