<svg viewBox="0 0 58 58" xmlns="http://www.w3.org/2000/svg">
    <title>Opera GX Logo</title>
    <polygon id="Combined-Shape-1"
             points="223.676843 41.8888889 220.88799 41.8888889 211.653974 30.8236268 202.419959 41.8888889 199.631106 41.8888889 210.259548 29.1526642 199.376308 16.1111111 202.165161 16.1111111 211.653974 27.4817016 221.142787 16.1111111 223.931641 16.1111111 213.048401 29.1526642"
             fill="#FFFFFF"></polygon>
    <path id="Combined-Shape-2"
          d="M197.562899,30.0740741 L187.536798,30.0740741 L189.329438,27.9259259 L199.752027,27.9259259 L199.752027,29 C199.752027,36.1183368 194.013073,41.8888889 186.933715,41.8888889 C179.854357,41.8888889 174.115403,36.1183368 174.115403,29 C174.115403,21.8816632 179.854357,16.1111111 186.933715,16.1111111 C190.48557,16.1111111 193.700015,17.5636914 196.021537,19.9102812 L194.642131,21.5644087 C192.698117,19.5273389 189.963193,18.2592593 186.933715,18.2592593 C181.034249,18.2592593 176.251788,23.0680527 176.251788,29 C176.251788,34.9319473 181.034249,39.7407407 186.933715,39.7407407 C192.472666,39.7407407 197.026961,35.501717 197.562899,30.0740741 Z"
          fill="#FFFFFF"></path>
    <path id="Shape-1"
          d="M46.3361945,48.4142124 C43.2704613,50.4370702 39.7656948,51.5091644 36.1907102,51.5091644 C30.3394338,51.5091644 24.7915268,48.6465908 20.9697565,43.6555957 C20.9561219,43.6384586 20.9431691,43.6226926 20.9295345,43.6055555 C17.9981017,40.1260482 16.2474228,35.014408 16.1267568,29.6121233 L16.126075,28.3446669 C16.2474228,22.9108501 17.9981017,17.7992098 20.9690748,14.2703478 C24.7915268,9.27935243 30.3401156,6.41677906 36.1907102,6.41677906 C39.7656948,6.41677906 43.271143,7.4888731 46.3382397,9.51310185 C51.8118384,14.4753069 54.9511984,21.5570228 54.9511984,28.9629718 C54.9511984,36.3696061 51.8111567,43.4520075 46.3361945,48.4142124 M27.6677395,55.1168567 C13.7618404,54.4608506 2.86781797,42.9728554 2.86781797,28.9629718 C2.86781797,14.5246617 14.5499186,2.77755446 28.935073,2.77823994 C28.9412085,2.77823994 29.0005189,2.77892544 29.0073364,2.77892544 C31.2849914,2.7871512 33.5306053,3.09493268 35.6930483,3.68101989 C29.1743598,3.83730982 23.0449382,7.06661613 18.8482172,12.5484167 C15.5207001,16.4974793 13.5348248,22.2329082 13.3998425,28.3138203 L13.3998425,29.64297 C13.5348248,35.6793257 15.5125193,41.4037868 18.8277653,45.353535 C23.0626632,50.8689242 29.1852675,54.0886337 35.6950935,54.2449234 C33.1072519,54.9468573 30.3612491,55.2457274 27.6677395,55.1168567 M48.0834651,7.39976045 C42.8355185,2.67815955 36.0645904,0.0637307151 28.9875661,0.0369969124 C28.9787036,0.0363114302 28.9180299,0.0356259481 28.909849,0.0356259481 C13.0467071,0.0356259481 0.140903723,13.0124881 0.140903723,28.9629718 C0.140903723,44.4397872 12.1761398,57.1314887 27.5416199,57.8560435 C27.9949693,57.8772933 28.4510457,57.8889464 28.909849,57.8889464 C35.9916453,57.8889464 42.7987051,55.2765742 48.0752843,50.5316672 L48.0814197,50.527554 C54.1801634,45.0423259 57.6781128,37.1825879 57.6781128,28.9629718 C57.6781128,20.744041 54.180845,12.8843029 48.0834651,7.39976045"
          fill="#FA1E4E"></path>
    <path id="Shape-2"
          d="M34.182165,10.7407407 C39.3144168,14.0546208 42.8482562,20.9841413 42.8482562,29 C42.8482562,37.0158588 39.3144168,43.9460651 34.182165,47.2592593 C40.7333172,46.713347 45.9322842,38.7482389 45.9322842,29 C45.9322842,19.2517612 40.7333172,11.2866531 34.182165,10.7407407"
          fill="#FA1E4E"></path>
</svg>
