<?xml version="1.0" encoding="UTF-8"?> <svg xmlns="http://www.w3.org/2000/svg" xmlns:xlink="http://www.w3.org/1999/xlink" width="130px" height="40px" viewBox="0 0 130 40" version="1.1"><g id="Batch-01" stroke="none" stroke-width="1" fill="none" fill-rule="evenodd"><g id="Footer-Navigation-(Dark-mode)" transform="translate(-1230.000000, -168.000000)" fill="#CAD3D3" fill-rule="nonzero"><g id="Pagely-logo_Updates" transform="translate(1230.000000, 168.000000)"><path d="M127.979254,14.2858926 C128.770555,14.2838006 129.485107,14.7588531 129.78938,15.4893178 C130.093653,16.2197825 129.927651,17.0616271 129.368859,17.6219056 C128.810066,18.182184 127.968666,18.3504212 127.237395,18.0480894 C126.506125,17.7457575 126.029172,17.0324702 126.029172,16.2411669 C126.028484,15.7223867 126.234263,15.2246562 126.601097,14.8578228 C126.96793,14.4909895 127.465661,14.2852101 127.984441,14.2858926 M127.984441,14.6411669 C127.333589,14.6232275 126.736779,15.0014754 126.47518,15.5977097 C126.21358,16.1939439 126.339373,16.8892358 126.793294,17.3560177 C127.247215,17.8227995 127.938722,17.9679641 128.54203,17.7231211 C129.145339,17.4782781 129.540109,16.8922655 129.540357,16.2411669 C129.549041,15.3710772 128.854434,14.6567888 127.984441,14.6411669 M127.25316,15.0949757 L128.103728,15.0949757 C128.622366,15.0949757 128.881686,15.3024311 128.881686,15.7380875 C128.894668,15.9005386 128.839422,16.0610595 128.72921,16.181111 C128.618999,16.3011626 128.463777,16.3699023 128.30081,16.3708266 L128.956888,17.3743922 L128.521232,17.3743922 L127.87034,16.3889789 L127.585089,16.3889789 L127.585089,17.3743922 L127.229822,17.3743922 L127.229822,15.0949757 L127.25316,15.0949757 Z M127.603241,16.0777958 L128.00778,16.0777958 C128.352674,16.0777958 128.526418,15.9792545 128.526418,15.7406807 C128.526418,15.502107 128.357861,15.434684 128.111507,15.434684 L127.592869,15.434684 L127.603241,16.0777958 Z" id="Shape"></path><path d="M23.1105348,15.1105348 C23.1076771,13.6398582 21.9154113,12.4487522 20.4447326,12.4473258 L16.8894652,12.4473258 L16.8894652,17.7763371 L20.4447326,17.7763371 C21.1517473,17.7763371 21.8298045,17.4954766 22.3297394,16.9955417 C22.8296743,16.4956068 23.1105348,15.8175496 23.1105348,15.1105348" id="Path"></path><path d="M20.4447326,8.88946515 L13.3341977,8.88946515 L13.3341977,31.1183144 L15.1105348,31.1183144 L15.1105348,10.6658023 L20.4447326,10.6658023 C22.0326826,10.6658022 23.500009,11.5129635 24.293984,12.8881685 C25.087959,14.2633736 25.087959,15.9576961 24.293984,17.3329012 C23.500009,18.7081062 22.0326826,19.5552675 20.4447326,19.5552674 L16.8894652,19.5552674 L16.8894652,31.1183144 L18.6709887,31.1183144 L18.6709887,21.3341977 L20.449919,21.3341977 C23.8871531,21.3341977 26.6735818,18.5477689 26.6735818,15.1105348 C26.6735818,11.6733007 23.8871531,8.88687196 20.449919,8.88687196" id="Path"></path><path d="M0,40 L40,40 L40,0 L0,0 L0,40 Z M20.4447326,23.1105348 L20.4447326,32.8894652 L11.5552674,32.8894652 L11.5552674,7.11053485 L20.4447326,7.11053485 C24.8630106,7.11053485 28.4447326,10.6922568 28.4447326,15.1105348 C28.4447326,19.5288128 24.8630106,23.1105348 20.4447326,23.1105348" id="Shape"></path><path d="M47.045705,28.6055105 L47.045705,8.99319287 L54.9186386,8.99319287 C59.0106969,8.99319287 61.4482982,11.5137763 61.4482982,15.071637 C61.4482982,18.6294976 59.0106969,21.1526742 54.9186386,21.1526742 L50.76953,21.1526742 L50.76953,28.6055105 L47.045705,28.6055105 Z M50.7721232,18.0408428 L54.750081,18.0408428 C56.9361426,18.0408428 57.8333874,16.6405186 57.8333874,15.071637 C57.8333874,13.5027553 56.9361426,12.1024311 54.750081,12.1024311 L50.7721232,12.1024311 L50.7721232,18.0408428 Z" id="Shape"></path><path d="M60.9970827,21.5442464 C60.9970827,17.2291734 63.4632091,14.2599676 67.6667747,14.2599676 C69.4301459,14.2599676 70.9705024,14.9886548 71.784765,16.0752026 L71.784765,14.4829822 L75.2311183,14.4829822 L75.2311183,28.6055105 L71.784765,28.6055105 L71.784765,26.9510535 C71.1105348,28.0713128 69.4871961,28.8285251 67.7212318,28.8285251 C63.4632091,28.8285251 60.9970827,25.8593193 60.9970827,21.5442464 M72.0363047,21.5442464 C72.0363047,18.9510535 70.5218801,17.2291734 68.1983793,17.2291734 C65.9293355,17.2291734 64.4149109,18.9380875 64.4149109,21.5442464 C64.4149109,24.1504052 65.9293355,25.8593193 68.2009724,25.8593193 C70.534846,25.8593193 72.0388979,24.1504052 72.0388979,21.5442464" id="Shape"></path><path d="M87.4424635,14.4829822 L90.8888169,14.4829822 L90.8888169,29.3886548 C90.8888169,32.3319287 88.7598055,34.3157212 85.593517,34.3157212 L78.6178282,34.3157212 L78.6178282,31.5747164 L85.1189627,31.5747164 C86.4907618,31.5747164 87.4709887,30.5374392 87.4709887,29.0541329 L87.4709887,27.0366288 C86.7708266,28.128363 85.1371151,28.8285251 83.3815235,28.8285251 C79.1235008,28.8285251 76.6573744,25.8593193 76.6573744,21.5442464 C76.6573744,17.2291734 79.1235008,14.2625608 83.3244733,14.2625608 C85.0904376,14.2625608 86.6307942,14.991248 87.4424635,16.0777958 L87.4424635,14.4829822 Z M87.7017828,21.5442464 C87.7017828,18.9510535 86.1873582,17.2291734 83.8612642,17.2291734 C81.5351702,17.2291734 80.0752026,18.9303079 80.0752026,21.5442464 C80.0752026,24.1581848 81.5611021,25.8593193 83.8560778,25.8593193 C86.1510535,25.8593193 87.6965964,24.1504052 87.6965964,21.5442464" id="Shape"></path><path d="M105.981199,23.8988655 C105.449595,26.8965964 102.814911,28.8259319 99.3400324,28.8259319 C94.7189627,28.8259319 92.141329,25.1954619 92.141329,21.4846029 C92.141329,17.7737439 94.4388979,14.2625608 99.0599676,14.2625608 C103.795138,14.2625608 105.924149,17.7089141 105.924149,21.0696921 C105.924149,21.5468395 105.895624,21.9669368 105.869692,22.2470016 L95.4476499,22.2470016 C95.7069692,24.5160454 97.156564,25.9734198 99.3374392,25.9734198 C101.103404,25.9734198 102.252188,25.2447326 102.615235,23.8988655 L105.981199,23.8988655 Z M95.5306321,19.9675851 L102.477796,19.9675851 C102.337763,18.1756888 101.105997,16.8298217 99.0599676,16.8298217 C97.1280389,16.8298217 95.8936791,17.8385737 95.5306321,19.9675851" id="Shape"></path><rect id="Rectangle" x="107.415235" y="8.43306321" width="3.4178282" height="20.1724473"></rect><polygon id="Path" points="125.214911 14.4829822 120.282658 27.9312804 118.09919 34.3209076 114.818801 34.3209076 116.810373 28.6055105 111.655105 14.4829822 115.155916 14.4829822 118.433712 24.1789303 121.685575 14.4829822"></polygon></g></g></g></svg> 